<?xml version="1.0" encoding="UTF-8"?>
<svg width="67px" height="67px" viewBox="0 0 67 67" version="1.1" xmlns="http://www.w3.org/2000/svg" xmlns:xlink="http://www.w3.org/1999/xlink">
    <!-- Generator: Sketch 56.2 (81672) - https://sketch.com -->
    <title>Group</title>
    <desc>Created with Sketch.</desc>
    <g id="Page-1" stroke="none" stroke-width="1" fill="none" fill-rule="evenodd">
        <g id="Group" fill="#FFFFFF">
            <g id="unchecked" fill-rule="nonzero">
                <path d="M54.6875,66.40625 L11.71875,66.40625 C5.25703125,66.40625 0,61.1492188 0,54.6875 L0,15.3458984 C0,14.2671875 0.874414063,13.3927734 1.953125,13.3927734 C3.03183594,13.3927734 3.90625,14.2671875 3.90625,15.3458984 L3.90625,54.6875 C3.90625,58.9955078 7.4109375,62.5 11.71875,62.5 L54.6875,62.5 C55.7660156,62.5 56.640625,63.3744141 56.640625,64.453125 C56.640625,65.5318359 55.7660156,66.40625 54.6875,66.40625 Z M61.9929688,63.1203125 C61.5316406,63.1203125 61.0685547,62.9578125 60.6964844,62.6273437 C59.8900391,61.9109375 59.8171875,60.6763672 60.5335938,59.8699219 C60.5683594,59.8310547 60.6027344,59.7914063 60.6367188,59.7517578 C61.3371094,58.93125 62.5699219,58.834375 63.3902344,59.5347656 C64.2105469,60.2351562 64.3078125,61.4679688 63.6072266,62.2882812 C63.5566406,62.3478516 63.5054688,62.4064453 63.4537109,62.4646484 C63.0679688,62.8986328 62.5316406,63.1203125 61.9929688,63.1203125 Z M64.453125,53.7673828 C63.3746094,53.7673828 62.5,52.8929688 62.5,51.8142578 L62.5,11.71875 C62.5,7.4109375 58.9953125,3.90625 54.6875,3.90625 L12.4728516,3.90625 C11.3941406,3.90625 10.5197266,3.03183594 10.5197266,1.953125 C10.5197266,0.874414063 11.3941406,0 12.4728516,0 L54.6875,0 C61.1492188,0 66.40625,5.25703125 66.40625,11.71875 L66.40625,51.8142578 C66.40625,52.8931641 65.5316406,53.7673828 64.453125,53.7673828 Z M3.81601562,7.93144531 C3.41777344,7.93144531 3.01601562,7.81015625 2.66914062,7.55800781 C1.79667969,6.92363281 1.60351562,5.70234375 2.23769531,4.8296875 C2.28398437,4.76601562 2.33105469,4.70292969 2.37851562,4.64023437 C3.03085938,3.78105469 4.25585937,3.61328125 5.11523438,4.265625 C5.97421875,4.91796875 6.14199219,6.14316406 5.48984375,7.00234375 C5.45859375,7.04335937 5.42792969,7.08476562 5.39746094,7.1265625 C5.01523437,7.65253906 4.41972656,7.93144531 3.81601562,7.93144531 Z" id="Shape"></path>
            </g>
            <g id="noun_checkmark_2193598" transform="translate(10.000000, 15.000000)">
                <path d="M15.1554243,28.4910751 L3.88405347,17.1253632 C3.82312714,17.0024907 3.64034815,17.0024907 3.57942182,17.1253632 L0.0456947467,20.6272312 C-0.0152315822,20.7501038 -0.0152315822,20.8729763 0.0456947467,20.9958489 L15.8865403,36.9078456 C15.9474666,37.0307181 16.1302456,37.0307181 16.1911719,36.9078456 L48.9086105,3.91656289 C49.0304632,3.85512661 49.0304632,3.67081777 48.9086105,3.60938149 L45.4358098,0.0460772105 C45.3139571,-0.0153590702 45.1921044,-0.0153590702 45.0702518,0.0460772105 L16.9222878,28.4910751 C16.4348772,28.9825654 15.6428349,28.9825654 15.1554243,28.4910751 Z" id="check"></path>
            </g>
        </g>
    </g>
</svg>