<?xml version="1.0" encoding="UTF-8"?>
<svg width="36px" height="33px" viewBox="0 0 36 33" version="1.1" xmlns="http://www.w3.org/2000/svg" xmlns:xlink="http://www.w3.org/1999/xlink">
    <g id="Page-1" stroke="none" stroke-width="1" fill="none" fill-rule="evenodd">
        <g id="Color-menu" transform="translate(-291.000000, -296.000000)" fill="#ffffff">
            <g id="Add-Button" transform="translate(-25.000000, 193.000000)">
                <g id="noun_color_1382068" transform="translate(316.000000, 103.000000)">
                    <path d="M18.1406047,0 C12.0163092,0 7.03227285,5.04454279 7.01844558,11.2505764 C2.91563194,12.9124929 0,16.9780593 0,21.7235006 C0,27.9413675 5.0021183,33 11.1349229,33 C13.7319547,33 16.1176092,32.0929028 18.0127638,30.57618 C19.9060774,32.0891284 22.2859229,33 24.8778001,33 C31.0143274,33 36,27.9409943 36,21.7235006 C36,17.0810047 33.2259138,13.0814901 29.2627638,11.3542684 C29.2627638,11.3284283 29.2627638,11.3023934 29.2627638,11.2764994 C29.2627638,5.05901404 24.2771319,0 18.1406047,0 L18.1406047,0 Z M18.1406047,1.65907118 C23.2290001,1.65907118 27.3602865,5.69401109 27.6136365,10.7839627 C26.7410047,10.5603282 25.8182592,10.4469638 24.8778001,10.4469638 C22.2859229,10.4469638 19.9060774,11.3578229 18.0127638,12.8707631 C16.1176092,11.3540444 13.7319547,10.4469638 11.1349229,10.4469638 C10.2903956,10.4469638 9.45871376,10.5504194 8.66757285,10.7321167 C8.94640921,5.66681892 13.0736047,1.65907118 18.1406047,1.65907118 Z M11.1349229,12.106035 C13.2586365,12.106035 15.2064819,12.8097259 16.785491,13.9984131 C15.3054819,15.5929008 14.2764138,17.6299498 13.909091,19.882927 C11.1121365,18.4693984 9.11315467,15.7012381 8.73151376,12.4171109 C9.49819103,12.2151189 10.3050001,12.106035 11.1349229,12.106035 Z M24.8778001,12.106035 C25.8069274,12.106035 26.7021001,12.2440905 27.5496956,12.4948798 C27.134141,15.8409319 25.032641,18.6507763 22.129241,20.0125419 C21.780491,17.705645 20.7381683,15.6241328 19.2272729,13.9984131 C20.8057092,12.8097259 22.7558865,12.106035 24.8778001,12.106035 Z M7.14628649,12.9874166 C7.73455921,16.8793031 10.2956319,20.1205475 13.7556819,21.6327494 C13.7552729,21.6630274 13.7556819,21.693264 13.7556819,21.7235006 C13.7556819,24.7085014 14.9109956,27.4290464 16.785491,29.4485508 C15.2065229,30.6370264 13.2584319,31.3409288 11.1349229,31.3409288 C5.8867774,31.3409288 1.63636364,27.0444322 1.63636364,21.7235006 C1.63636364,17.8464586 3.89479103,14.5112071 7.14628649,12.9874166 L7.14628649,12.9874166 Z M29.1093547,13.10407 C32.2340319,14.6758077 34.3636365,17.9403206 34.3636365,21.7235006 C34.3636365,27.044847 30.1303638,31.3409288 24.8778001,31.3409288 C22.7560501,31.3409288 20.8056274,30.6370264 19.2272729,29.4485508 C21.0991092,27.4344798 22.2504547,24.7262535 22.2570819,21.7494236 C25.8222683,20.3063635 28.471541,17.0462471 29.1093547,13.10407 L29.1093547,13.10407 Z M18.0127638,15.10014 C19.3848138,16.5645773 20.2981501,18.4670342 20.5440138,20.5828891 C19.7770501,20.7848396 18.9712229,20.893965 18.1406047,20.893965 C17.2135229,20.893965 16.3150365,20.7682489 15.4687092,20.5180195 C15.7259865,18.4248108 16.6516365,16.5506411 18.0127638,15.10014 Z M15.4048092,22.2160373 C16.2808365,22.441671 17.1963819,22.5530362 18.1406047,22.5530362 C18.9900001,22.5530362 19.8127638,22.4514181 20.6079547,22.2678833 C20.4783956,24.6214417 19.5123683,26.7462556 18.0127638,28.3468031 C16.4991683,26.7338541 15.523241,24.5932375 15.4048092,22.2160373 Z" id="Shape"></path>
                </g>
            </g>
        </g>
    </g>
</svg>