<svg height='100px' width='100px'  fill="#ffffff" xmlns="http://www.w3.org/2000/svg" xmlns:xlink="http://www.w3.org/1999/xlink" version="1.0" x="0px" y="0px" viewBox="0 0 100 100" enable-background="new 0 0 100 100" xml:space="preserve"><path fill="#ffffff" d="M76.7,76.6c6.8-6.8,11-16.2,11-26.6c0-20.8-16.9-37.7-37.7-37.7c-10.4,0-19.7,4.2-26.6,11c0,0,0,0-0.1,0  c0,0,0,0,0,0.1c-6.8,6.8-11,16.2-11,26.6c0,20.8,16.9,37.7,37.7,37.7c10.3,0,19.7-4.2,26.6-11C76.6,76.7,76.6,76.7,76.7,76.6  C76.7,76.6,76.7,76.6,76.7,76.6z M85.7,50c0,9.5-3.7,18.1-9.8,24.5L62.7,61.3c1.2-2.1,1.9-4.5,1.9-7.1c0-6-7.6-16.2-12.2-21.8  c-0.6-0.7-1.4-1.1-2.3-1.1s-1.7,0.4-2.3,1.1c-1.7,2.1-3.9,4.9-6,7.9L25.5,24.1c6.4-6,15-9.8,24.5-9.8C69.7,14.3,85.7,30.3,85.7,50z   M43.2,41.8c1.7-2.5,3.7-5.2,6.1-8.1c0.3-0.3,0.6-0.4,0.8-0.4s0.5,0,0.8,0.4c7.4,9,11.7,16.6,11.7,20.5c0,2-0.5,3.9-1.3,5.6  L43.2,41.8z M60.1,61.5c-2.3,3.1-6,5.2-10.1,5.2c-6.9,0-12.5-5.6-12.5-12.5c0-2.3,1.6-6.1,4.6-10.7L60.1,61.5z M14.3,50  c0-9.5,3.7-18.1,9.8-24.5L40.6,42c-2.8,4.4-5.1,8.9-5.1,12.2c0,8,6.5,14.5,14.5,14.5c4.7,0,8.9-2.3,11.5-5.7l12.9,12.9  c-6.4,6-15,9.8-24.5,9.8C30.3,85.7,14.3,69.7,14.3,50z"></path><path fill="#ffffff" d="M39.6,56.7c0.7,2.7,2.4,5,4.7,6.4c0.2,0.1,0.3,0.1,0.5,0.1c0.3,0,0.7-0.2,0.9-0.5c0.3-0.5,0.1-1.1-0.3-1.4  c-1.9-1.2-3.3-3-3.9-5.2c-0.1-0.5-0.7-0.9-1.2-0.7C39.8,55.6,39.5,56.1,39.6,56.7z"></path></svg>