<svg width="91" height="151" viewBox="0 0 91 151" fill="none" xmlns="http://www.w3.org/2000/svg">
<path d="M5.35627 150.059L0.5 124.321L5.35627 110.237L18.9538 97.4724H45.7673V150.059H5.35627Z" fill="#80A789"/>
<path d="M86.1437 150.059L91 124.321L86.1437 110.237L72.5462 97.4724H45.7327V150.059H86.1437Z" fill="#73A57F"/>
<path d="M15.9014 37.8095L46.0796 25.4607V108.78L34.2858 103.161L35.1183 91.4365L22.9776 80.1978L15.9014 64.9352V37.8095Z" fill="#F0E4C6"/>
<rect x="34.2163" y="52.9333" width="3.88501" height="17.4826" fill="black"/>
<path d="M21.7288 26.7095V26.7095C19.4548 23.2226 20.5285 18.5448 24.0955 16.3986L25.8761 15.3274C31.4458 11.9763 37.5211 9.54863 43.8665 8.13855L46.1489 7.63135V16.1645L39.9051 33.5083L38.5176 34.0633V34.0633C35.7565 34.0633 33.0552 34.8688 30.7451 36.3812L20.8269 42.874L15.7626 37.8096V64.9353L11.4164 58.6546C7.10146 52.419 6.64828 44.2902 10.2434 37.6135V37.6135C11.5035 35.2732 13.2448 33.2262 15.3528 31.6071L21.7288 26.7095Z" fill="#EA361A"/>
<rect x="29.7764" y="49.1545" width="10.6283" height="3.29478" rx="1.64739" transform="rotate(-6.9478 29.7764 49.1545)" fill="#EA361A"/>
<path d="M75.564 37.8788L45.3857 25.53V108.85L57.6652 103.369L54.8208 91.0896L64.6027 83.2502L73.0665 65.7677L75.564 37.8788Z" fill="#F3DFAB"/>
<rect width="3.88501" height="17.4826" transform="matrix(-1 0 0 1 57.2489 53.0027)" fill="black"/>
<path d="M69.7365 26.7788V26.7788C72.1675 23.0514 71.678 18.1347 68.5599 14.9597L63.1607 9.46184C60.2273 6.47492 56.6679 4.17594 52.7389 2.73055V2.73055C49.1372 1.40556 45.3164 4.07109 45.3164 7.90881V16.2338L39.8358 33.5776L42.8183 31.9447C47.8642 29.1822 54.1919 31.393 56.4195 36.6968V36.6968C58.207 40.9527 64.172 41.1296 66.2085 36.9871L67.1003 35.1733L75.7028 37.8789L73.899 47.5914V47.5914C76.8876 47.5914 79.3103 45.1687 79.3103 42.1802V38.3738C79.3103 35.6999 78.0674 33.1779 75.9468 31.5491L69.7365 26.7788Z" fill="#EA361A"/>
<rect width="10.6283" height="3.29478" rx="1.64739" transform="matrix(-0.999955 -0.00951486 -0.00951486 0.999955 61.6644 48.4558)" fill="#EA361A"/>
</svg>
