<svg width="166" height="196" viewBox="0 0 166 196" fill="none" xmlns="http://www.w3.org/2000/svg">
<path d="M146.017 136.836H14.3016C6.40039 136.836 0 130.436 0 122.534V121.563C0 113.662 6.40039 107.262 14.3016 107.262H146.017C153.918 107.262 160.319 113.662 160.319 121.563V122.534C160.319 130.436 153.918 136.836 146.017 136.836Z" fill="#E5846B"/>
<path d="M133.305 109.91H33.1055C15.5375 109.91 1.32422 95.6969 1.32422 78.1289C1.32422 60.5609 15.5375 46.3477 33.1055 46.3477H133.305C150.873 46.3477 165.086 60.5609 165.086 78.1289C165.086 95.6969 150.873 109.91 133.305 109.91Z" fill="#EA361A"/>
<path d="M81.8809 195.102C44.4496 195.102 14.125 164.777 14.125 127.346V92.916C14.125 55.4848 44.4496 25.1602 81.8809 25.1602C119.312 25.1602 149.637 55.4848 149.637 92.916V127.346C149.637 164.777 119.312 195.102 81.8809 195.102Z" fill="#F8AA8D"/>
<path d="M64.0039 75.0391C84.7254 75.0391 101.523 58.241 101.523 37.5195C101.523 16.7981 84.7254 0 64.0039 0C43.2825 0 26.4844 16.7981 26.4844 37.5195C26.4844 58.241 43.2825 75.0391 64.0039 75.0391Z" fill="#EA361A"/>
<path d="M57.3828 36.1953C57.3828 36.2395 57.3828 36.3277 57.3828 36.3719C57.3828 62.5914 78.6145 83.823 104.834 83.823C131.054 83.823 152.285 62.5914 152.285 36.3719C152.285 36.3277 152.285 36.2395 152.285 36.1953H57.3828Z" fill="#EA361A"/>
<path d="M101.523 54.293C112.006 54.293 120.504 45.7951 120.504 35.3125C120.504 24.8299 112.006 16.332 101.523 16.332C91.0408 16.332 82.543 24.8299 82.543 35.3125C82.543 45.7951 91.0408 54.293 101.523 54.293Z" fill="#EA361A"/>
<path d="M135.953 128.891C139.366 128.891 142.133 126.124 142.133 122.711C142.133 119.298 139.366 116.531 135.953 116.531C132.54 116.531 129.773 119.298 129.773 122.711C129.773 126.124 132.54 128.891 135.953 128.891Z" fill="#1A1A1A"/>
<path d="M137.895 123.991C138.968 123.991 139.838 123.122 139.838 122.049C139.838 120.976 138.968 120.107 137.895 120.107C136.823 120.107 135.953 120.976 135.953 122.049C135.953 123.122 136.823 123.991 137.895 123.991Z" fill="#F2F2F2"/>
<path d="M45.0234 128.008C48.4364 128.008 51.2031 125.241 51.2031 121.828C51.2031 118.415 48.4364 115.648 45.0234 115.648C41.6105 115.648 38.8438 118.415 38.8438 121.828C38.8438 125.241 41.6105 128.008 45.0234 128.008Z" fill="#1A1A1A"/>
<path d="M46.9656 123.108C48.0383 123.108 48.9078 122.239 48.9078 121.166C48.9078 120.093 48.0383 119.224 46.9656 119.224C45.893 119.224 45.0234 120.093 45.0234 121.166C45.0234 122.239 45.893 123.108 46.9656 123.108Z" fill="#F2F2F2"/>
<path d="M142.353 115.207H129.111C126.286 115.207 124.035 112.956 124.035 110.131C124.035 107.306 126.286 105.055 129.111 105.055H142.353C145.178 105.055 147.43 107.306 147.43 110.131C147.43 112.956 145.178 115.207 142.353 115.207Z" fill="#EA361A"/>
<path d="M52.3508 113.706L39.4176 116.531C36.6809 117.105 33.9883 115.384 33.3703 112.647C32.7965 109.91 34.518 107.218 37.2547 106.6L50.1879 103.775C52.9246 103.201 55.6172 104.922 56.2352 107.659C56.809 110.396 55.0875 113.088 52.3508 113.706Z" fill="#EA361A"/>
<path d="M134.629 140.941C130.965 140.941 126.286 142.353 120.945 144.207C110.749 147.739 98.2129 152.859 86.0743 152.859C73.9356 152.859 61.3996 147.739 51.2032 144.207C45.8621 142.353 41.1832 140.941 37.5196 140.941C29.3094 140.941 31.1633 166.587 56.9856 178.196C64.5336 181.594 74.068 183.757 86.0743 183.757C98.0805 183.757 107.615 181.55 115.163 178.196C140.985 166.631 142.839 140.941 134.629 140.941Z" fill="#7F3521"/>
<path d="M55.1758 156.258C60.8258 158.421 72.0817 161.819 86.0743 161.819C100.067 161.819 111.323 158.376 116.973 156.258C119.356 155.331 120.945 153.035 120.945 150.475V146.414C110.749 149.946 98.2129 155.066 86.0743 155.066C73.9356 155.066 61.3997 149.946 51.2032 146.414V150.475C51.2032 153.08 52.7922 155.375 55.1758 156.258Z" fill="white"/>
<path d="M112.382 167.337C105.849 165.307 66.3434 165.307 59.8106 167.337C56.9414 168.22 55.9262 172.457 57.0297 175.547C64.5778 178.946 74.1121 181.109 86.1184 181.109C98.1246 181.109 107.659 178.902 115.207 175.547C116.222 172.502 115.207 168.22 112.382 167.337Z" fill="#E5435A"/>
<path d="M73.2734 133.305C73.761 133.305 74.1562 132.909 74.1562 132.422C74.1562 131.934 73.761 131.539 73.2734 131.539C72.7859 131.539 72.3906 131.934 72.3906 132.422C72.3906 132.909 72.7859 133.305 73.2734 133.305Z" fill="#E8745D"/>
<path d="M78.5703 125.359C79.5454 125.359 80.3359 124.569 80.3359 123.594C80.3359 122.619 79.5454 121.828 78.5703 121.828C77.5952 121.828 76.8047 122.619 76.8047 123.594C76.8047 124.569 77.5952 125.359 78.5703 125.359Z" fill="#E8745D"/>
<path d="M97.1094 124.035C97.5969 124.035 97.9922 123.64 97.9922 123.152C97.9922 122.665 97.5969 122.27 97.1094 122.27C96.6218 122.27 96.2266 122.665 96.2266 123.152C96.2266 123.64 96.6218 124.035 97.1094 124.035Z" fill="#E8745D"/>
<path d="M90.4883 135.07C90.9758 135.07 91.3711 134.675 91.3711 134.188C91.3711 133.7 90.9758 133.305 90.4883 133.305C90.0007 133.305 89.6055 133.7 89.6055 134.188C89.6055 134.675 90.0007 135.07 90.4883 135.07Z" fill="#E8745D"/>
<path d="M70.1836 110.793C70.6712 110.793 71.0664 110.398 71.0664 109.91C71.0664 109.423 70.6712 109.027 70.1836 109.027C69.696 109.027 69.3008 109.423 69.3008 109.91C69.3008 110.398 69.696 110.793 70.1836 110.793Z" fill="#E8745D"/>
<path d="M102.406 116.09C103.381 116.09 104.172 115.299 104.172 114.324C104.172 113.349 103.381 112.559 102.406 112.559C101.431 112.559 100.641 113.349 100.641 114.324C100.641 115.299 101.431 116.09 102.406 116.09Z" fill="#E8745D"/>
<path d="M104.172 133.305C105.147 133.305 105.938 132.514 105.938 131.539C105.938 130.564 105.147 129.773 104.172 129.773C103.197 129.773 102.406 130.564 102.406 131.539C102.406 132.514 103.197 133.305 104.172 133.305Z" fill="#E8745D"/>
</svg>
