<svg width="653" height="1082" viewBox="0 0 653 1082" fill="none" xmlns="http://www.w3.org/2000/svg">
<path d="M35.5 1081.5L0.5 896L35.5 794.5L133.5 702.5H326.75V1081.5H35.5Z" fill="#80A789"/>
<path d="M617.75 1081.5L652.75 896L617.75 794.5L519.75 702.5H326.5V1081.5H617.75Z" fill="#73A57F"/>
<path d="M111.5 272.5L329 183.5V784L244 743.5L250 659L162.5 578L111.5 468V272.5Z" fill="#F0E4C6"/>
<rect x="243.5" y="381.5" width="28" height="126" fill="black"/>
<path d="M153.5 192.5L147.857 183.848C134.55 163.444 140.833 136.071 161.706 123.513L205.335 97.2634C230.943 81.856 258.876 70.6943 288.05 64.2112L329.5 55V116.5L284.5 241.5L274.5 245.5H265.173C251.358 245.5 237.844 249.53 226.285 257.097L147 309L110.5 272.5V468L79.1765 422.734C48.0779 377.792 44.8118 319.207 70.7223 271.087C79.8045 254.22 92.3544 239.467 107.547 227.797L153.5 192.5Z" fill="#EA361A"/>
<rect x="211.5" y="354.266" width="76.6003" height="23.7461" rx="11.873" transform="rotate(-6.9478 211.5 354.266)" fill="#EA361A"/>
<path d="M541.5 273L324 184V784.5L412.5 745L392 656.5L462.5 600L523.5 474L541.5 273Z" fill="#F3DFAB"/>
<rect width="28" height="126" transform="matrix(-1 0 0 1 409.5 382)" fill="black"/>
<path d="M499.5 193L510.616 175.955C521.645 159.045 519.424 136.74 505.279 122.336L452.107 68.1932C430.966 46.666 405.312 30.0967 376.995 19.6796C351.037 10.1302 323.5 29.3411 323.5 57.0003V117L284 242L305.496 230.231C341.862 210.321 387.467 226.255 403.522 264.48C416.405 295.154 459.395 296.429 474.073 266.573L480.5 253.5L542.5 273L529.5 343C551.039 343 568.5 325.539 568.5 304V276.567C568.5 257.296 559.542 239.119 544.259 227.38L499.5 193Z" fill="#EA361A"/>
<rect width="76.6003" height="23.7461" rx="11.873" transform="matrix(-0.999955 -0.00951486 -0.00951486 0.999955 441.323 349.229)" fill="#EA361A"/>
</svg>
