<?xml version="1.0" encoding="UTF-8"?>
<svg width="175px" height="152px" viewBox="0 0 175 152" version="1.1" xmlns="http://www.w3.org/2000/svg" xmlns:xlink="http://www.w3.org/1999/xlink">
    <!-- Generator: Sketch 56.2 (81672) - https://sketch.com -->
    <title>man-reading-illustration</title>
    <desc>Created with Sketch.</desc>
    <g id="Page-1" stroke="none" stroke-width="1" fill="none" fill-rule="evenodd">
        <g id="Nexus-10" transform="translate(-184.000000, -600.000000)">
            <g id="man-reading-illustration" transform="translate(184.000000, 601.000000)">
                <rect id="Rectangle" fill="#FF8585" fill-rule="nonzero" x="43" y="81" width="74" height="13" rx="3"></rect>
                <path d="M43,90.96 C43,90.42976 43.4039919,90 43.902439,90 L58.3414634,90 L117,94 L43.902439,94 C43.4039919,94 43,93.57024 43,93.04 L43,90.96 Z" id="Path" fill-opacity="0.08" fill="#121212" fill-rule="nonzero"></path>
                <rect id="Rectangle" fill="#FFBCA7" fill-rule="nonzero" x="38" y="94" width="81" height="13" rx="3"></rect>
                <path d="M38,103.827586 C38,103.370483 38.4014133,103 38.896679,103 L62.9575646,103 L119,107 L38.896679,107 C38.4014133,107 38,106.629517 38,106.172414 L38,103.827586 Z" id="Path" fill-opacity="0.06" fill="#000000" fill-rule="nonzero"></path>
                <rect id="Rectangle" fill="#8DA6FF" fill-rule="nonzero" x="29" y="107" width="88" height="13" rx="3"></rect>
                <path d="M29,115.8 C29,115.358133 29.4006237,115 29.8949153,115 L41.6779661,115 L117,119 L29.8949153,119 C29.4006237,119 29,118.641867 29,118.2 L29,115.8 Z" id="Path" fill-opacity="0.09" fill="#000000" fill-rule="nonzero"></path>
                <rect id="Rectangle" fill="#6587FF" fill-rule="nonzero" x="40" y="119" width="79" height="17" rx="3"></rect>
                <polygon id="Path" fill-opacity="0.09" fill="#000000" fill-rule="nonzero" points="40 129 58.8454198 130.4 119 136 40 136"></polygon>
                <rect id="Rectangle" fill="#322FD1" fill-rule="nonzero" x="31" y="136" width="86" height="13" rx="3"></rect>
                <path d="M31,137.88343 C31,137.276141 31.6097909,136.850392 32.1938118,137.049585 L45.1360627,141.463906 C45.2007875,141.485973 45.2679094,141.500685 45.3359303,141.507746 L117,149 L31.8989547,149 C31.4024321,149 31,148.60485 31,148.117312 L31,137.88343 Z" id="Path" fill-opacity="0.04" fill="#000000" fill-rule="nonzero"></path>
                <polygon id="Path" fill="#2644E0" points="143.592972 29.7943079 146.338285 26 150 35.2556939 149.399145 35.9779349 138.153838 50 135.784546 48.1704626 129 42.6815513 141.492223 27.9372452"></polygon>
                <polygon id="Path" fill="#E2FAFF" fill-rule="nonzero" points="143 29.0319057 144.375122 27.5079764 145.749934 27 150 35 149.750287 35"></polygon>
                <polygon id="Path" fill-opacity="0.12" fill="#000000" fill-rule="nonzero" points="145 27.5079764 149.777753 35 150 35 146.222082 27"></polygon>
                <polygon id="Path" fill-opacity="0.09" fill="#FFFFFF" fill-rule="nonzero" points="141.649126 28 129 42.5080954 138.579033 50 150 35.3729762"></polygon>
                <path d="M146.675778,130.267918 C146.157831,129.558884 144.914045,122.191635 143.834791,117.390328 L142,108.846539 L149.073658,107 C149.073658,107 150.814007,120.592419 155.120331,123.184588 C158.470652,125.201295 164.779566,124.22176 166.338158,125.466611 C168.709904,127.360725 164.180244,129.159995 161.063059,129.652507 C158.748633,130.018155 154.229071,131.129738 154.229071,131.129738 C147.54714,133.095822 147.395379,131.252942 146.675778,130.267918 Z" id="Path" fill="#1E2884" fill-rule="nonzero"></path>
                <path d="M148.453902,133 L148,131.536585 C152.962667,131.536585 163.382148,128.512293 167.971707,127 C168.697951,129.341463 155.262439,131.97561 148.453902,133 Z" id="Path" fill="#FFB74B" fill-rule="nonzero"></path>
                <path d="M123,130.701159 C123,127.481011 123.740288,120.934065 123,115.090235 L123,108 L130.647301,110.188224 C130.647301,111.738622 131.04204,114.231725 130.647301,115.090235 C130.252562,115.949039 129.602404,120.466701 131.202441,123.953028 C133.348451,128.629038 141.74765,130.343397 141.994515,132.013148 C142.241074,133.682603 134.100655,132.728671 132.743816,132.728671 C131.387283,132.728671 123,132.851273 123,130.701159 Z" id="Path" fill="#1E2884" fill-rule="nonzero"></path>
                <path d="M123,132.022303 L123,131 C125.1888,131.613382 136.629232,131.937196 142,132.022303 L141.696,132.789031 C139.6288,133.402413 128.32,132.533455 123,132.022303 Z" id="Path" fill="#FFB74B" fill-rule="nonzero"></path>
                <path d="M112.469645,67 C119.621651,68.0399908 135.607671,71.7035882 142.336608,78.0389426 C147.41615,87.6779546 152.454926,111.803721 151.967235,116.315302 C151.789371,116.4333 151.61664,116.548624 151.44844,116.66038 C148.316342,118.747198 146.826391,119.73993 144.165376,118.715098 C143.056519,113.745493 139.421631,105.389008 136.491253,98.6526965 C135.682259,96.7926614 134.927016,95.056272 134.29347,93.548746 L133.559668,102.636405 L131.24351,120.514796 C128.317662,122.554652 127.464277,122.434573 123.92904,120.514796 L121.54222,86.9539141 C108.875826,85.0763427 93.9032383,82.4714614 92.7210013,80.7986782 C91.1606899,78.5908897 90.9329998,74.8393137 91.0142314,73.2396478 L112.469645,67 Z" id="Path" fill="#FCAACF"></path>
                <path d="M123.434824,120.482274 L121,86 C127.804353,87.3771284 130.694635,88.8936705 134,93.1377408 L133.190024,102.212391 L130.843906,120.482274 C127.880212,122.566798 127.016094,122.44409 123.434824,120.482274 Z" id="Path" fill-opacity="0.19" fill="#000000" fill-rule="nonzero"></path>
                <path d="M102.029578,20.9897793 C103.624209,21.2837767 105.099646,21.3189842 105.76791,20.6903654 C107.577031,18.989574 109.50654,14.6650741 107.094578,4.65501982 C103.476635,3.52145979 95.8308887,3.051726 94.1908501,10.2430766 C93.8290857,12.5107984 93.7325952,17.4831759 96.240749,19.2327161 C95.9593435,21.41919 95.2761434,26.1324766 94.7936913,27.4932301 C94.1908501,29.1940216 101.788202,31.042564 102.029578,28.2485356 L102.017329,28.1480288 C101.81449,26.4749219 101.47543,23.6802917 102.029578,20.9897793 Z M121.016385,59 C121.016385,59 131.026297,56.6510301 143.092381,47.3490371 C145.755875,45.2958701 148.825944,41.2692795 145.645045,40.2575915 C144.14571,39.7806357 140.425301,43.2120094 140.425301,43.2120094 C140.425301,43.2120094 141.007829,37.8977886 139.638441,39.7282759 C139.20289,40.3102523 136.537304,46.1616127 136.537304,46.1616127 L120.565897,51.6437461 L121.016385,59 Z" id="Shape" fill="#F6BDBD"></path>
                <path d="M108.933867,6.30409418 C107.08138,8.71775611 103.943986,8.59309707 102.23762,8.19101938 C99.702526,8.02510628 100.937618,12.5104399 100.897163,14.5106643 C100.897163,14.5106643 96.8069577,10.8901714 97.7211252,14.5106643 C98.6352928,18.1308583 97.7211252,19.8204814 95.7711226,18.6136504 C95.1510102,18.2298082 93.9427875,16.9240273 93.3335438,15.7171963 C92.7239981,14.5106643 91.1396021,11.9762296 92.6023305,6.66611357 C93.8534237,2.12398088 99.1817403,2.32158189 102.83992,2.32158189 C105.406412,2.32158189 108.08793,-0.860153064 110.769146,0.225994804 C113.450362,1.31205299 111.249476,3.28716624 108.933867,6.30409418 Z" id="Path" stroke="#000000" stroke-width="0.807388" fill="#000000" fill-rule="nonzero"></path>
                <path d="M87.2276305,59.891562 C85.7686921,36.1143309 91.6038432,22.5272558 96.7093746,23.0125729 C101.328593,23.0125729 105.097141,28.2290553 105.097141,31.6256738 C105.097141,31.6256738 110.26922,48.2884271 114.578885,49.0946845 C116.523835,49.4585972 120.292383,49.4585972 120.292383,49.4585972 L126.978205,49.0946845 C128.153185,52.0871225 130.017133,57.7077854 128.315189,59.4062449 C126.744233,60.9739844 121.913024,60.497983 120.292383,60.6193874 C120.292383,60.6193874 116.718661,60.980295 112.633935,60.6909078 L116.811106,67.5634784 C111.300264,71.7284906 97.8277435,81 92.0898549,81 C88.39448,79.4469854 87.2276305,78.5737151 87.2276305,59.891562 Z" id="Path" fill="#2249B3" fill-rule="nonzero"></path>
                <path d="M98.0083761,36 C98.0083761,36 97.5989358,50.1696566 102.505296,56.8829445 C104.499511,59.61153 109.174356,60.588307 113.322047,60.8862088 C117.405914,61.1792419 120.978883,60.8137873 120.978883,60.8137873 C122.599183,60.6908534 127.429375,61.173156 129,59.5853609" id="Path" stroke="#FFFFFF" stroke-width="0.807388"></path>
                <path d="M0,149 L175,149" id="Path" stroke-opacity="0.1" stroke="#000000" stroke-width="3"></path>
                <path d="M21.0001301,133.076877 C20.9998373,123.774137 21.0001301,100 21.0001301,100 C21.0001301,100 27.4352441,120.466329 29.8483021,131.629918 C30.7908617,135.989458 27.0329214,143 27.0329214,143 C27.0329214,143 21.0001301,137.667292 21.0001301,133.076877 Z" id="Path" fill="#2C8B74" fill-rule="nonzero"></path>
                <polygon id="Path" fill-opacity="0.05" fill="#000000" fill-rule="nonzero" points="24.500156 117.515476 23 107 29 127"></polygon>
                <path d="M21,118 C21.4943257,120.974994 25.8038628,135.010926 28,141.553567 L27.1765235,143 C23.4707293,140.314112 21.6178322,136.595143 21,133.908954 L21,118 Z" id="Path" fill-opacity="0.18" fill="#000000" fill-rule="nonzero"></path>
                <path d="M28,149 L21,101" id="Path" stroke="#000000" stroke-width="0.686788"></path>
                <path d="M31.967375,142 C30.6921834,138.851025 29.6719053,126.44246 35.7929498,102 C39.6893513,113.725272 44.3791983,138.140712 31.967375,142 Z" id="Path" fill="#2C8B74" fill-rule="nonzero"></path>
                <path d="M33.6617731,112 C34.7564198,119.401989 33.0051445,131.368215 31.1077746,134 C30.560584,128.242764 32.2021556,115.906514 33.6617731,112 Z" id="Path" fill-opacity="0.11" fill="#000000" fill-rule="nonzero"></path>
                <path d="M32,142 C34.1066566,135.291667 37.0559144,125.776807 39.5837182,119 C40.6370465,125.913755 40.2155925,139.535842 32,142 Z" id="Path" fill-opacity="0.18" fill="#000000" fill-rule="nonzero"></path>
                <path d="M29,149 C31.7984709,144.922309 37.3134203,133.200947 36.9860475,118.936122 C36.8193796,111.679178 36.2349983,100.621079 36.1667211,102.141722" id="Path" stroke="#000000" stroke-width="0.686788"></path>
                <path d="M16.2883824,138.500153 C18.0653824,144.044075 23.4231372,146.13004 28,149 C28,149 24.6421051,140.607828 20.9325736,136.609881 C16.5377034,131.873498 7,128 7,128 C7,128 14.5116764,132.955925 16.2883824,138.500153 Z" id="Path" fill="#183D45" fill-rule="nonzero"></path>
                <path d="M29,149 C23.3751138,142.263969 14.4167931,131.291755 9,129" id="Path" stroke="#FFFFFF" stroke-width="0.412073"></path>
                <path d="M14.6355224,143.027008 C19.9659255,142.53221 28,149 28,149 C28,149 19.4024984,146.286528 14.6355224,146.041459 C11.258852,145.867829 6,147.719984 6,147.719984 C6,147.719984 10.9513921,143.368987 14.6355224,143.027008 Z" id="Path" fill="#285964" fill-rule="nonzero"></path>
                <path d="M7,147.63774 C7,147.63774 12.4268686,144.139841 16.2646177,144.004276 C21.1746702,143.830687 28,149 28,149" id="Path" stroke="#FFFFFF" stroke-width="0.274715"></path>
                <path d="M40.7116176,138.500153 C38.9346176,144.044075 33.5768628,146.13004 29,149 C29,149 32.3578949,140.607828 36.0674264,136.609881 C40.4622966,131.873498 50,128 50,128 C50,128 42.4886176,132.955925 40.7116176,138.500153 Z" id="Path" fill="#183D45" fill-rule="nonzero"></path>
                <path d="M28,149 C33.6251896,142.263969 42.5835103,131.291755 48,129" id="Path" stroke="#FFFFFF" stroke-width="0.412073"></path>
                <path d="M42.3644776,143.027008 C37.0343739,142.53221 29,149 29,149 C29,149 37.5978009,146.286528 42.3644776,146.041459 C45.7414474,145.867829 51,147.719984 51,147.719984 C51,147.719984 46.0486079,143.368987 42.3644776,143.027008 Z" id="Path" fill="#285964" fill-rule="nonzero"></path>
                <path d="M50,147.63774 C50,147.63774 44.5734312,144.139841 40.7353823,144.004276 C35.8253298,143.830687 29,149 29,149" id="Path" stroke="#FFFFFF" stroke-width="0.274715"></path>
            </g>
        </g>
    </g>
</svg>