<svg height='100px' width='100px'  fill="#ffffff" xmlns="http://www.w3.org/2000/svg" xmlns:xlink="http://www.w3.org/1999/xlink" version="1.1" x="0px" y="0px" viewBox="0 0 512 512" style="enable-background:new 0 0 512 512;" xml:space="preserve"><g><g><g><path d="M366,426H146c-33.084,0-60-26.916-60-60V164.571c0-5.523,4.477-10,10-10s10,4.477,10,10V366c0,22.057,17.944,40,40,40     h220c5.522,0,10,4.477,10,10S371.522,426,366,426z M403.404,409.176c-2.362,0-4.733-0.832-6.638-2.524     c-4.129-3.668-4.502-9.989-0.834-14.118c0.178-0.199,0.354-0.402,0.528-0.605c3.586-4.201,9.898-4.697,14.098-1.111     c4.2,3.586,4.698,9.898,1.111,14.098c-0.259,0.305-0.521,0.605-0.786,0.903C408.908,408.041,406.162,409.176,403.404,409.176z      M416,361.289c-5.522,0-10-4.477-10-10V146c0-22.056-17.944-40-40-40H149.861c-5.523,0-10-4.477-10-10s4.477-10,10-10H366     c33.084,0,60,26.916,60,60v205.289C426,356.813,421.522,361.289,416,361.289z M105.538,126.609c-2.039,0-4.096-0.621-5.872-1.912     c-4.467-3.248-5.456-9.501-2.209-13.969c0.237-0.326,0.478-0.649,0.721-0.97c3.34-4.399,9.612-5.258,14.012-1.918     c4.398,3.34,5.257,9.613,1.918,14.012c-0.16,0.21-0.317,0.422-0.473,0.636C111.678,125.181,108.629,126.609,105.538,126.609z"></path></g></g></g></svg>